<svg width="16" height="20" viewBox="0 0 16 20" fill="none" xmlns="http://www.w3.org/2000/svg">
<path d="M14.875 7.5C14.875 5.67664 14.1507 3.92795 12.8614 2.63864C11.572 1.34933 9.82336 0.625 8 0.625C6.17664 0.625 4.42795 1.34933 3.13864 2.63864C1.84933 3.92795 1.125 5.67664 1.125 7.5C1.125 13.75 8 19.375 8 19.375C8 19.375 14.875 13.75 14.875 7.5Z" stroke="#EA1179" stroke-linecap="round" stroke-linejoin="round"/>
<path d="M8 10.625C9.72589 10.625 11.125 9.22589 11.125 7.5C11.125 5.77411 9.72589 4.375 8 4.375C6.27411 4.375 4.875 5.77411 4.875 7.5C4.875 9.22589 6.27411 10.625 8 10.625Z" stroke="#EA1179" stroke-linecap="round" stroke-linejoin="round"/>
</svg>
