<svg width="25" height="25" viewBox="0 0 25 25" fill="none" xmlns="http://www.w3.org/2000/svg">
<path d="M6.39505 16.5657V10.6571C6.39505 7.27398 9.11705 4.55042 12.4982 4.55042C15.8793 4.55042 18.6013 7.27398 18.6013 10.6571V16.7229" stroke="#EA1179" stroke-width="0.8" stroke-linecap="round" stroke-linejoin="round"/>
<path d="M7.22863 16.3741H17.366C18.0283 16.3741 18.6636 16.6375 19.1322 17.1063L20.4566 18.4315C20.5165 18.4914 20.5573 18.5678 20.5739 18.651C20.5904 18.7342 20.5819 18.8204 20.5495 18.8988C20.5171 18.9772 20.4622 19.0442 20.3918 19.0913C20.3214 19.1384 20.2385 19.1636 20.1538 19.1636H4.89286C4.80101 19.1636 4.71106 19.1374 4.63358 19.0879C4.55611 19.0385 4.49432 18.968 4.45548 18.8847C4.41664 18.8013 4.40237 18.7086 4.41433 18.6174C4.42629 18.5263 4.46399 18.4404 4.523 18.3699L5.52956 17.1678C5.73766 16.9193 5.99763 16.7195 6.29118 16.5823C6.58472 16.4452 6.90471 16.3741 7.22863 16.3741Z" stroke="#EA1179" stroke-width="0.8" stroke-linecap="round" stroke-linejoin="round"/>
<path d="M11.4433 4.64065V3.96707C11.4433 3.24108 11.9138 2.65662 12.4982 2.65662C13.0826 2.65662 13.553 3.24108 13.553 3.96707V4.64065" stroke="#EA1179" stroke-width="0.8" stroke-linecap="round" stroke-linejoin="round"/>
<path d="M14.4467 19.3352C14.5295 19.574 14.5718 19.825 14.5718 20.0778C14.5718 20.3753 14.5132 20.67 14.3994 20.9448C14.2856 21.2197 14.1188 21.4695 13.9086 21.6799C13.6983 21.8903 13.4487 22.0571 13.174 22.171C12.8992 22.2849 12.6048 22.3435 12.3074 22.3435C12.0101 22.3435 11.7156 22.2849 11.4409 22.171C11.1662 22.0571 10.9166 21.8903 10.7063 21.6799C10.496 21.4695 10.3292 21.2197 10.2155 20.9448C10.1017 20.67 10.0431 20.3753 10.0431 20.0778C10.0431 19.8247 10.0855 19.5734 10.1685 19.3344" stroke="#EA1179" stroke-width="0.8" stroke-linecap="round" stroke-linejoin="round"/>
<circle cx="18.5" cy="7.5" r="2.5" fill="white"/>
<mask id="path-6-inside-1_67_113" fill="white">
<path d="M18.5 5C18.0055 5 17.5222 5.14662 17.1111 5.42133C16.7 5.69603 16.3795 6.08648 16.1903 6.54329C16.0011 7.00011 15.9516 7.50277 16.048 7.98773C16.1445 8.47268 16.3826 8.91814 16.7322 9.26777C17.0819 9.6174 17.5273 9.8555 18.0123 9.95196C18.4972 10.0484 18.9999 9.99892 19.4567 9.8097C19.9135 9.62048 20.304 9.30005 20.5787 8.88893C20.8534 8.4778 21 7.99445 21 7.5C20.9992 6.8372 20.7356 6.20178 20.2669 5.73311C19.7982 5.26444 19.1628 5.00079 18.5 5ZM18.5 9.54545C18.0954 9.54545 17.7 9.42549 17.3636 9.20073C17.0272 8.97598 16.7651 8.65652 16.6102 8.28276C16.4554 7.909 16.4149 7.49773 16.4938 7.10095C16.5728 6.70417 16.7676 6.33971 17.0536 6.05365C17.3397 5.76758 17.7042 5.57277 18.101 5.49385C18.4977 5.41492 18.909 5.45543 19.2828 5.61025C19.6565 5.76506 19.976 6.02723 20.2007 6.36361C20.4255 6.69998 20.5455 7.09545 20.5455 7.5C20.5449 8.0423 20.3292 8.56222 19.9457 8.94569C19.5622 9.32916 19.0423 9.54485 18.5 9.54545Z"/>
</mask>
<path d="M18.5 5C18.0055 5 17.5222 5.14662 17.1111 5.42133C16.7 5.69603 16.3795 6.08648 16.1903 6.54329C16.0011 7.00011 15.9516 7.50277 16.048 7.98773C16.1445 8.47268 16.3826 8.91814 16.7322 9.26777C17.0819 9.6174 17.5273 9.8555 18.0123 9.95196C18.4972 10.0484 18.9999 9.99892 19.4567 9.8097C19.9135 9.62048 20.304 9.30005 20.5787 8.88893C20.8534 8.4778 21 7.99445 21 7.5C20.9992 6.8372 20.7356 6.20178 20.2669 5.73311C19.7982 5.26444 19.1628 5.00079 18.5 5ZM18.5 9.54545C18.0954 9.54545 17.7 9.42549 17.3636 9.20073C17.0272 8.97598 16.7651 8.65652 16.6102 8.28276C16.4554 7.909 16.4149 7.49773 16.4938 7.10095C16.5728 6.70417 16.7676 6.33971 17.0536 6.05365C17.3397 5.76758 17.7042 5.57277 18.101 5.49385C18.4977 5.41492 18.909 5.45543 19.2828 5.61025C19.6565 5.76506 19.976 6.02723 20.2007 6.36361C20.4255 6.69998 20.5455 7.09545 20.5455 7.5C20.5449 8.0423 20.3292 8.56222 19.9457 8.94569C19.5622 9.32916 19.0423 9.54485 18.5 9.54545Z" fill="#EA1179"/>
<path d="M18.5 5L18.5018 3.5H18.5V5ZM21 7.5H22.5L22.5 7.4982L21 7.5ZM18.5 9.54545V11.0455L18.5017 11.0455L18.5 9.54545ZM20.5455 7.5L22.0455 7.50166V7.5H20.5455ZM18.5 3.5C17.7089 3.5 16.9355 3.7346 16.2777 4.17412L17.9444 6.66853C18.1089 6.55865 18.3022 6.5 18.5 6.5V3.5ZM16.2777 4.17412C15.6199 4.61365 15.1072 5.23836 14.8045 5.96927L17.5761 7.11732C17.6518 6.93459 17.78 6.77841 17.9444 6.66853L16.2777 4.17412ZM14.8045 5.96927C14.5017 6.70017 14.4225 7.50444 14.5769 8.28036L17.5192 7.69509C17.4806 7.50111 17.5004 7.30004 17.5761 7.11732L14.8045 5.96927ZM14.5769 8.28036C14.7312 9.05628 15.1122 9.76902 15.6716 10.3284L17.7929 8.20711C17.653 8.06725 17.5578 7.88907 17.5192 7.69509L14.5769 8.28036ZM15.6716 10.3284C16.231 10.8878 16.9437 11.2688 17.7196 11.4231L18.3049 8.48078C18.1109 8.4422 17.9327 8.34696 17.7929 8.20711L15.6716 10.3284ZM17.7196 11.4231C18.4956 11.5775 19.2998 11.4983 20.0307 11.1955L18.8827 8.42388C18.7 8.49957 18.4989 8.51937 18.3049 8.48078L17.7196 11.4231ZM20.0307 11.1955C20.7616 10.8928 21.3864 10.3801 21.8259 9.72228L19.3315 8.05557C19.2216 8.22002 19.0654 8.34819 18.8827 8.42388L20.0307 11.1955ZM21.8259 9.72228C22.2654 9.06448 22.5 8.29113 22.5 7.5H19.5C19.5 7.69778 19.4414 7.89112 19.3315 8.05557L21.8259 9.72228ZM22.5 7.4982C22.4987 6.4382 22.0771 5.42198 21.3275 4.67245L19.2062 6.79377C19.394 6.98157 19.4997 7.2362 19.5 7.5018L22.5 7.4982ZM21.3275 4.67245C20.578 3.92292 19.5618 3.50127 18.5018 3.5L18.4982 6.5C18.7638 6.50032 19.0184 6.60597 19.2062 6.79377L21.3275 4.67245ZM18.5 8.04545C18.3921 8.04545 18.2867 8.01346 18.197 7.95353L16.5303 10.4479C17.1133 10.8375 17.7988 11.0455 18.5 11.0455V8.04545ZM18.197 7.95353C18.1073 7.89359 18.0374 7.8084 17.9961 7.70874L15.2244 8.85679C15.4928 9.50463 15.9472 10.0584 16.5303 10.4479L18.197 7.95353ZM17.9961 7.70874C17.9548 7.60907 17.944 7.49939 17.965 7.39359L15.0227 6.80832C14.8859 7.49607 14.9561 8.20894 15.2244 8.85679L17.9961 7.70874ZM17.965 7.39359C17.9861 7.28778 18.038 7.19059 18.1143 7.11431L15.993 4.99298C15.4971 5.48883 15.1595 6.12056 15.0227 6.80832L17.965 7.39359ZM18.1143 7.11431C18.1906 7.03802 18.2878 6.98607 18.3936 6.96503L17.8083 4.02267C17.1206 4.15947 16.4888 4.49714 15.993 4.99298L18.1143 7.11431ZM18.3936 6.96503C18.4994 6.94398 18.6091 6.95478 18.7087 6.99607L19.8568 4.22443C19.2089 3.95608 18.4961 3.88587 17.8083 4.02267L18.3936 6.96503ZM18.7087 6.99607C18.8084 7.03735 18.8936 7.10726 18.9535 7.19696L21.4479 5.53025C21.0584 4.9472 20.5046 4.49277 19.8568 4.22443L18.7087 6.99607ZM18.9535 7.19696C19.0135 7.28666 19.0455 7.39212 19.0455 7.5H22.0455C22.0455 6.79878 21.8375 6.1133 21.4479 5.53025L18.9535 7.19696ZM19.0455 7.49834C19.0453 7.64339 18.9876 7.78246 18.885 7.88503L21.0064 10.0064C21.6707 9.34199 22.0444 8.44121 22.0455 7.50166L19.0455 7.49834ZM18.885 7.88503C18.7825 7.9876 18.6434 8.04529 18.4983 8.04545L18.5017 11.0455C19.4412 11.0444 20.342 10.6707 21.0064 10.0064L18.885 7.88503Z" fill="#EA1179" mask="url(#path-6-inside-1_67_113)"/>
</svg>
