<svg width="25" height="25" viewBox="0 0 25 25" fill="none" xmlns="http://www.w3.org/2000/svg">
<path d="M7.86201 22.6569C17.296 22.6569 22.456 14.8409 22.456 8.06292C22.456 7.84094 22.456 7.61995 22.441 7.39993C23.4448 6.6738 24.3114 5.77483 25 4.74495C24.0639 5.15974 23.0708 5.43171 22.054 5.55193C23.1245 4.91111 23.9262 3.90242 24.309 2.71492C23.3022 3.31233 22.2006 3.73342 21.052 3.95994C20.0822 2.92864 18.7277 2.34314 17.3121 2.34314C14.4956 2.34314 12.1781 4.66072 12.1781 7.47712C12.1781 7.86785 12.2227 8.25735 12.311 8.63792C8.18901 8.43132 4.34321 6.48162 1.73999 3.27893C0.386279 5.6093 1.08672 8.62932 3.32798 10.1259C2.51182 10.1017 1.71318 9.88152 1 9.48391V9.5489C1.00068 11.9812 2.73081 14.0953 5.11499 14.5769C4.35991 14.7828 3.56748 14.8129 2.79902 14.6649C3.46929 16.7491 5.4021 18.1858 7.59102 18.2269C5.7751 19.654 3.53062 20.4292 1.221 20.4269C0.812891 20.4261 0.405176 20.4014 0 20.3529C2.34541 21.858 5.0752 22.6566 7.86201 22.6529" fill="#1DA1F2"/>
</svg>
